<svg xmlns="http://www.w3.org/2000/svg" xmlns:svg="http://www.w3.org/2000/svg" id="svg2" width="103.281" height="119.493" version="1.1"><metadata id="metadata7"/><g id="layer1" transform="translate(-347.71849,-465.69416)"><path style="fill:#000;stroke:#000;stroke-opacity:1" id="path3034" d="m 353.22688,523.92459 c -0.0335,18.08354 3.11532,55.73131 45.15574,55.76017 42.04043,0.0289 47.59973,-34.92423 47.09465,-48.56129 -0.50507,-13.63706 -13.19657,-27.1597 -28.03173,-19.44543 -6.31345,3.28298 4.97293,-1.79353 6.15652,-14.48917 0.95739,-10.26939 3.03981,-16.29039 10.50508,-20.00526 7.43256,-3.6986 16.38321,-8.72695 -3.64539,-4.15047 -3.58578,0.81934 -5.65827,-0.0306 -9.2297,4.96936 -3.57143,5 -0.87491,13.28825 -3.55348,21.1454 -2.67857,7.85714 -5.46174,12.73087 -8.67603,15.40944 0.53572,0.89286 1.08039,2.65691 2.06889,4.76912 23.77535,-14.56151 31.19122,5.07962 27.5,25.00001 -2.14286,11.25 -17.85714,26.07142 -34.46429,26.07142 -12.50127,0 -34.6154,-1.24249 -34.28571,-47.14285 0.12837,-17.87228 7.79579,-55.89091 23.21429,-35.17857 -10.26786,11.33929 -9.51311,9.64182 -2.12053,34.01785 7.82406,25.79877 9.4558,20.17209 0.50885,34.63101 21.9472,-5.96611 25.24147,-12.47213 12.84215,-42.85086 -12.03731,-29.4918 3.34054,-27.81391 3.92892,-40.63827 l -11.05225,10.9117 c -19.20218,-25.81458 -43.75639,6.74155 -43.91598,39.77669 z"/></g></svg>